<?xml version="1.0" standalone="no"?>
<!DOCTYPE svg PUBLIC "-//W3C//DTD SVG 20010904//EN"
 "http://www.w3.org/TR/2001/REC-SVG-20010904/DTD/svg10.dtd">
<svg version="1.0" xmlns="http://www.w3.org/2000/svg"
 width="2048.000000pt" height="2048.000000pt" viewBox="0 0 2048.000000 2048.000000"
 preserveAspectRatio="xMidYMid meet">

<g transform="translate(0.000000,2048.000000) scale(0.100000,-0.100000)"
fill="#000000" stroke="none">
<path d="M12220 17113 c-155 -15 -308 -41 -435 -73 -416 -104 -788 -311 -1099
-610 -351 -338 -592 -755 -706 -1224 -103 -417 -101 -788 5 -1201 218 -851
909 -1539 1762 -1755 324 -81 661 -99 972 -50 68 10 125 21 127 23 6 6 -221
380 -237 390 -11 7 -41 -1 -107 -27 -106 -43 -247 -61 -257 -34 -9 22 23 106
63 167 36 55 110 111 145 111 14 0 17 5 13 16 -15 38 -195 334 -371 608 l-38
60 -54 -107 c-52 -105 -83 -201 -83 -263 0 -17 -7 -37 -15 -44 -19 -16 -20 2
-4 65 16 65 4 80 -68 80 -50 0 -65 5 -105 34 -62 45 -92 104 -83 163 10 60 50
139 94 183 35 37 121 85 152 85 42 0 47 -9 -190 310 -99 133 -179 228 -253
300 -92 91 -108 111 -119 153 -15 64 -43 64 -101 1 -54 -58 -110 -91 -173 -99
-112 -16 -145 -51 -145 -152 1 -102 67 -203 134 -203 76 0 101 109 38 167 -37
34 -22 38 44 11 81 -32 97 -63 91 -178 -3 -67 -11 -99 -35 -152 -55 -122 -94
-140 -202 -94 -105 46 -128 -5 -91 -203 7 -39 7 -72 -3 -124 -23 -120 -5 -149
132 -217 110 -54 192 -131 192 -181 0 -114 173 -294 418 -436 88 -51 70 -48
-77 13 -268 113 -529 290 -741 503 -486 489 -711 1204 -594 1889 18 105 55
243 83 306 l17 40 73 -92 c40 -51 76 -92 81 -92 13 0 30 85 30 150 0 78 -16
115 -74 168 -25 23 -46 47 -46 53 0 21 94 192 157 287 186 277 403 488 699
678 65 42 141 87 168 101 l50 25 -48 -53 c-73 -81 -99 -139 -103 -234 -4 -73
-2 -85 24 -135 59 -114 175 -157 293 -110 244 99 500 -152 412 -402 -52 -147
-188 -282 -459 -457 -308 -198 -334 -205 -466 -120 -141 91 -178 104 -292 104
-87 0 -107 -3 -155 -26 -62 -29 -153 -107 -175 -150 -25 -48 -19 -76 30 -128
48 -51 75 -104 75 -146 0 -28 -16 -64 -55 -121 -40 -59 -31 -110 26 -140 18
-9 41 -13 55 -10 33 9 64 62 64 111 1 70 63 177 131 226 l29 20 53 -29 c40
-23 73 -32 149 -41 130 -15 208 -14 212 2 2 6 9 31 15 54 6 23 26 61 44 85 93
121 258 159 418 94 189 -76 310 -197 639 -636 194 -258 432 -550 450 -550 5 0
30 26 56 57 70 87 74 88 133 58 69 -34 161 -55 252 -55 109 0 174 15 261 60
61 32 88 40 129 40 45 0 50 -2 44 -17 -4 -10 -9 -36 -12 -58 -9 -74 63 -147
203 -205 l78 -32 51 16 c56 17 159 86 175 116 19 35 10 70 -41 167 -69 130
-69 156 -1 295 28 57 54 120 58 141 16 94 24 17 24 -238 0 -298 -7 -363 -56
-492 -14 -38 -39 -103 -55 -145 l-28 -77 87 -47 c48 -26 122 -71 166 -100 43
-30 85 -54 94 -54 42 0 150 183 206 350 31 92 31 109 6 -345 -11 -198 -23
-461 -27 -585 -6 -185 -9 -213 -15 -155 -30 279 -243 581 -500 710 -270 135
-527 82 -628 -130 -39 -83 -54 -164 -46 -252 32 -350 293 -694 611 -803 192
-66 374 -36 479 80 46 51 76 118 83 188 3 29 10 55 15 58 15 9 -1 -273 -18
-326 -29 -92 -176 -238 -306 -303 -163 -81 -354 -26 -518 150 -81 87 -106 127
-234 381 -244 481 -744 1268 -1093 1719 -195 252 -567 706 -609 744 -92 82
-165 119 -237 119 -83 0 -157 -74 -157 -156 1 -70 39 -136 235 -399 187 -251
409 -572 652 -945 354 -544 526 -836 820 -1390 69 -129 173 -316 231 -415 145
-245 206 -415 277 -770 166 -826 89 -1733 -257 -3040 -31 -118 -31 -122 -19
-215 20 -167 80 -375 102 -353 20 20 193 455 259 653 108 322 221 806 270
1155 33 242 43 424 37 680 -10 390 -55 705 -188 1310 -68 306 -72 316 -220
541 -72 110 -124 192 -116 184 8 -8 47 -53 87 -100 39 -47 111 -128 159 -180
l87 -95 18 -140 c36 -287 77 -414 142 -441 45 -19 53 -17 284 58 256 84 346
130 483 250 37 33 67 54 67 46 0 -7 -11 -56 -25 -108 -61 -226 -157 -355 -309
-412 -27 -11 -115 -28 -195 -39 -80 -11 -155 -26 -168 -34 -53 -35 -68 -118
-79 -435 -9 -277 12 -421 76 -515 62 -90 230 -230 417 -346 54 -34 99 -62 101
-64 2 -2 -53 -123 -123 -269 -69 -147 -161 -342 -204 -434 -126 -269 -538
-1118 -599 -1232 -30 -58 -97 -183 -149 -278 -118 -215 -124 -233 -113 -354 5
-51 12 -164 16 -250 4 -87 9 -158 11 -158 9 0 149 74 230 121 391 230 854 669
1122 1064 188 277 338 589 420 876 176 611 196 1262 65 2039 -70 414 -143 744
-240 1076 l-46 159 6 395 c6 391 25 1478 47 2692 16 943 17 867 -8 913 -42 80
-163 111 -253 65 -49 -25 -70 -64 -79 -149 l-7 -66 -13 45 c-64 225 -251 578
-406 765 -499 603 -1212 942 -1964 933 -75 0 -152 -3 -171 -5z m1541 -869 c50
-8 115 -26 144 -39 109 -52 285 -232 348 -357 26 -51 27 -57 21 -163 -7 -120
-2 -146 81 -415 36 -118 43 -187 24 -237 -5 -15 -44 -79 -84 -143 -70 -108
-115 -208 -115 -252 0 -11 -4 -18 -8 -16 -4 2 -80 77 -168 168 -264 273 -323
382 -464 867 -25 88 -59 129 -145 177 -179 101 -255 268 -164 362 18 18 48 39
67 45 92 30 287 32 463 3z m125 -1891 c8 -18 14 -42 14 -54 0 -18 -2 -20 -16
-8 -25 20 -44 65 -44 101 1 32 1 32 16 13 9 -11 22 -34 30 -52z"/>
<path d="M7086 16681 c-8 -13 -79 -216 -615 -1766 -104 -302 -242 -701 -306
-885 -194 -558 -325 -937 -895 -2585 -128 -368 -295 -852 -372 -1075 -77 -223
-166 -481 -198 -575 -32 -93 -189 -550 -350 -1015 -160 -465 -385 -1117 -500
-1450 -115 -333 -428 -1239 -695 -2015 -494 -1429 -545 -1579 -545 -1602 0
-11 269 -13 1459 -13 l1459 0 10 28 c18 47 591 1790 922 2805 l61 187 2307 -2
2306 -3 153 -465 c85 -256 225 -683 312 -950 87 -267 238 -730 336 -1030 98
-300 182 -551 188 -557 7 -10 113 -13 467 -13 l457 0 7 99 c7 99 7 99 -23 143
-41 58 -59 136 -70 305 -20 289 32 716 119 974 36 107 97 242 141 310 l29 46
-21 47 c-11 26 -27 79 -35 118 -19 91 -22 289 -5 346 10 35 9 83 -4 260 -30
396 -26 450 46 594 l28 56 -33 26 c-18 14 -42 44 -53 68 -19 40 -93 344 -93
382 0 10 -30 45 -66 79 -74 68 -220 246 -333 405 -235 329 -581 1004 -645
1257 -8 33 -18 81 -21 107 -7 46 -13 53 -144 172 -170 155 -445 434 -494 502
-45 63 -59 96 -103 241 -19 63 -82 245 -140 406 -169 468 -237 738 -206 817 8
22 3 32 -49 88 -149 163 -262 334 -333 501 -61 145 -126 397 -133 521 l-6 94
-99 110 c-470 522 -719 1158 -719 1831 0 732 277 1422 791 1970 36 39 74 80
84 93 l19 22 -1696 0 c-933 0 -1698 -4 -1701 -9z m1899 -3366 c81 -247 329
-999 550 -1670 654 -1976 914 -2769 911 -2772 -1 -2 -730 -2 -1618 -1 l-1615
3 152 465 c85 256 235 715 335 1020 604 1844 1126 3418 1132 3412 3 -4 72
-209 153 -457z"/>
<path d="M10737 12533 c39 -246 125 -458 257 -633 131 -174 557 -640 827 -905
641 -629 1132 -911 1641 -941 l117 -7 12 27 c10 20 10 61 0 182 -33 435 -145
822 -362 1257 -64 128 -317 557 -328 557 -3 0 -58 -7 -122 -15 -351 -43 -686
-22 -1022 64 -291 76 -613 224 -895 412 -73 49 -135 89 -136 89 -2 0 3 -39 11
-87z"/>
<path d="M11240 11409 c0 -26 40 -201 67 -294 14 -49 75 -229 135 -400 99
-278 143 -414 162 -497 7 -32 206 -241 391 -412 300 -276 810 -658 1135 -849
163 -95 350 -183 359 -168 26 41 79 572 83 821 l3 175 -85 18 c-311 65 -658
222 -985 445 -324 221 -530 409 -1103 1006 -89 93 -162 163 -162 155z"/>
<path d="M12330 9352 c0 -6 11 -47 25 -91 82 -258 322 -726 550 -1071 137
-208 332 -446 358 -437 5 1 18 30 28 62 40 129 183 802 177 833 -2 7 -41 28
-88 47 -100 38 -217 96 -325 160 -119 70 -535 361 -712 498 -9 6 -13 6 -13 -1z"/>
<path d="M15546 7528 c-36 -41 -56 -72 -56 -88 0 -41 83 -201 416 -795 107
-191 78 -176 235 -120 74 26 138 51 143 56 5 5 -7 34 -29 71 -138 226 -563
861 -609 911 -14 15 -29 27 -35 27 -5 0 -34 -28 -65 -62z"/>
<path d="M15244 7195 c-484 -510 -1071 -926 -1637 -1161 l-119 -49 7 -65 c12
-124 14 -130 44 -124 572 104 1534 357 2189 576 151 51 153 52 147 77 -21 90
-448 878 -481 888 -6 2 -74 -62 -150 -142z"/>
<path d="M16460 6211 c-25 -10 -89 -35 -143 -55 -65 -25 -97 -43 -95 -52 2 -7
38 -37 80 -66 248 -170 434 -400 605 -745 l85 -173 31 17 c17 9 88 37 157 64
69 26 126 54 128 61 1 8 -33 72 -77 142 -222 354 -485 668 -658 784 -34 23
-63 42 -65 41 -2 0 -23 -8 -48 -18z"/>
<path d="M16010 6031 c-29 -17 -385 -132 -618 -200 -627 -184 -1316 -354
-1680 -415 l-197 -33 -31 -40 c-127 -166 -236 -749 -205 -1094 6 -68 16 -128
21 -133 11 -11 89 -2 359 40 784 121 1743 374 2619 690 248 90 482 181 494
192 21 20 -61 229 -159 407 -152 276 -315 463 -489 561 -62 35 -87 40 -114 25z"/>
<path d="M17185 4755 c-1422 -571 -2608 -908 -3615 -1025 -102 -12 -190 -23
-196 -25 -8 -2 -8 -25 2 -81 18 -102 31 -138 61 -175 79 -94 187 -100 638 -35
176 26 379 58 450 72 894 176 1435 323 2025 549 338 130 721 317 885 433 137
96 160 173 96 325 -23 53 -38 77 -49 76 -10 -1 -143 -52 -297 -114z"/>
</g>
</svg>
