<?xml version="1.0" standalone="no"?>
<!DOCTYPE svg PUBLIC "-//W3C//DTD SVG 20010904//EN"
 "http://www.w3.org/TR/2001/REC-SVG-20010904/DTD/svg10.dtd">
<svg version="1.0" xmlns="http://www.w3.org/2000/svg"
 width="2048.000000pt" height="2088.000000pt" viewBox="0 0 2048.000000 2088.000000"
 preserveAspectRatio="xMidYMid meet">

<g transform="translate(0.000000,2088.000000) scale(0.100000,-0.100000)"
fill="#000000" stroke="none">
<path d="M12780 17214 c-129 -12 -346 -48 -463 -78 -175 -45 -301 -93 -482
-182 -543 -267 -934 -655 -1204 -1194 -129 -258 -205 -494 -248 -770 -27 -175
-25 -587 5 -767 75 -460 248 -853 528 -1203 192 -240 493 -495 749 -637 300
-166 619 -272 941 -313 144 -19 202 -21 394 -17 151 3 256 10 320 22 52 9 97
19 99 21 9 8 -148 297 -217 402 -7 10 -15 10 -43 -2 -43 -18 -217 -62 -281
-71 -41 -6 -48 -4 -58 14 -9 17 -8 34 4 74 22 76 69 140 142 194 35 26 64 48
64 50 0 36 -443 733 -457 719 -3 -2 -8 -57 -12 -122 l-6 -116 -34 -12 c-55
-18 -61 -38 -27 -98 27 -49 27 -52 10 -65 -18 -13 -76 -18 -87 -7 -3 3 4 21
14 39 16 27 18 38 9 54 -6 12 -16 21 -23 22 -7 0 -38 2 -69 3 -107 5 -173 76
-172 186 1 111 78 216 204 280 42 21 60 36 56 45 -11 29 -313 444 -399 548
-22 27 -71 73 -109 103 -58 47 -69 60 -74 95 -15 94 -77 92 -144 -6 -38 -55
-67 -70 -148 -78 -35 -4 -72 -11 -82 -17 -78 -42 -67 -232 18 -322 70 -75 142
19 97 125 -18 45 -19 77 -2 77 7 0 37 -15 67 -32 88 -52 118 -137 89 -243 -6
-22 -19 -51 -29 -65 -10 -14 -23 -44 -29 -66 -15 -57 -45 -92 -89 -104 -46
-12 -101 1 -127 30 -68 75 -110 -80 -69 -246 16 -61 16 -68 0 -100 -30 -64
-17 -132 36 -181 21 -20 79 -49 195 -98 57 -24 93 -77 93 -136 0 -67 41 -138
138 -240 86 -90 210 -183 324 -240 32 -16 58 -31 58 -34 0 -9 -117 38 -235 96
-336 162 -636 382 -817 598 -204 244 -373 567 -450 860 -112 429 -114 924 -5
1273 12 39 27 73 33 75 6 2 28 -10 50 -25 37 -28 61 -64 84 -126 8 -23 13 -26
25 -16 8 6 22 32 31 56 40 104 -29 314 -103 314 -19 0 -10 43 28 134 119 282
430 626 769 852 134 88 392 228 330 178 -108 -87 -152 -166 -158 -282 -8 -148
39 -235 143 -268 52 -17 59 -16 182 4 102 17 140 19 186 11 110 -18 175 -69
223 -174 67 -144 29 -322 -99 -474 -72 -84 -133 -130 -351 -265 -195 -121
-294 -175 -359 -196 -43 -13 -59 -6 -131 60 -50 46 -100 71 -195 100 -149 46
-284 9 -402 -109 -91 -91 -89 -126 15 -234 70 -71 71 -89 11 -181 -38 -58 -45
-77 -45 -118 0 -53 20 -102 45 -112 25 -9 71 20 88 56 9 18 23 67 32 108 18
79 51 147 93 193 31 33 35 33 71 6 38 -28 105 -40 158 -28 31 6 48 5 70 -6 28
-15 137 -20 178 -9 14 3 27 22 38 53 51 144 180 224 363 224 70 0 91 -4 148
-31 97 -45 149 -84 270 -202 126 -123 232 -252 452 -554 309 -425 318 -434
396 -443 48 -6 58 1 87 60 21 42 43 44 121 9 90 -41 162 -56 255 -56 98 1 183
22 297 75 48 22 103 43 122 46 l34 5 -5 -59 c-7 -78 7 -119 60 -173 62 -63
135 -94 222 -94 135 1 215 64 223 175 4 53 0 66 -37 140 -27 53 -41 96 -41
120 0 22 18 83 41 141 36 87 43 117 47 195 2 50 2 103 -2 117 -4 15 -67 91
-141 169 -170 180 -238 266 -316 396 -80 134 -139 274 -184 436 -65 234 -68
240 -184 317 -227 154 -283 309 -147 413 56 42 155 58 331 52 324 -12 489 -95
670 -336 93 -123 101 -150 86 -264 -20 -141 -7 -209 84 -467 55 -155 44 -210
-79 -403 -18 -28 -48 -81 -67 -117 -32 -62 -34 -71 -34 -170 0 -58 6 -168 14
-245 8 -91 12 -218 9 -365 -5 -248 -9 -268 -95 -468 -19 -46 -34 -84 -32 -86
2 -2 34 -17 71 -35 59 -28 154 -94 254 -176 l32 -26 45 68 c46 69 155 274 195
368 l22 50 -5 -50 c-17 -158 -36 -607 -46 -1075 -6 -294 -15 -558 -20 -586 -6
-28 -23 -72 -38 -96 -38 -59 -210 -202 -289 -240 -160 -76 -342 -37 -512 108
-97 84 -132 137 -275 411 -436 835 -913 1552 -1479 2223 -72 85 -170 202 -217
260 -195 238 -288 287 -421 219 -44 -23 -78 -71 -78 -112 0 -15 13 -62 30
-105 29 -76 56 -114 231 -334 342 -428 1158 -1727 1547 -2463 52 -99 157 -295
233 -436 148 -274 173 -336 233 -581 99 -406 154 -880 142 -1228 -20 -581 -99
-1053 -340 -2043 l-56 -229 25 -175 c25 -172 59 -303 81 -310 15 -5 130 292
235 607 154 464 274 954 319 1297 58 456 49 940 -26 1388 -60 357 -189 925
-234 1031 -11 25 -74 129 -140 230 -152 234 -158 243 -138 224 8 -8 50 -58 94
-110 43 -52 123 -141 177 -197 104 -109 127 -148 127 -213 0 -101 54 -375 89
-456 38 -85 83 -91 261 -36 298 93 450 170 619 313 l74 62 -7 -39 c-13 -69
-76 -246 -108 -303 -52 -91 -140 -172 -238 -218 -109 -52 -159 -64 -299 -72
l-115 -6 -8 -30 c-41 -150 -58 -317 -58 -565 -1 -246 28 -354 123 -457 52 -56
307 -261 416 -334 77 -51 81 -56 76 -84 -3 -16 -70 -163 -149 -325 -79 -162
-219 -455 -312 -650 -228 -481 -544 -1115 -667 -1340 l-102 -185 -3 -114 c-4
-113 12 -395 24 -425 11 -30 76 -20 160 25 288 151 742 539 1016 867 488 585
755 1242 819 2017 16 190 7 736 -15 915 -49 396 -161 963 -296 1488 l-50 192
0 783 c0 1351 21 2559 51 2922 16 204 15 420 -4 485 -19 66 -63 112 -126 135
-58 20 -68 19 -129 -11 -65 -32 -101 -88 -109 -169 -7 -64 -18 -71 -28 -17
-21 116 -157 412 -279 608 -114 183 -325 413 -528 575 -378 302 -816 495
-1283 565 -96 15 -471 26 -565 18z m1713 -2820 c25 -26 53 -101 43 -112 -18
-17 -76 70 -76 113 0 31 3 31 33 -1z"/>
<path d="M9986 16724 c-253 -46 -461 -86 -462 -87 -4 -3 -318 -768 -949 -2307
-251 -613 -650 -1585 -887 -2160 -445 -1083 -534 -1300 -761 -1855 -74 -181
-240 -584 -367 -895 -252 -613 -866 -2110 -935 -2280 -24 -58 -75 -184 -115
-280 -40 -96 -188 -458 -330 -805 -413 -1009 -454 -1103 -609 -1414 -401 -802
-749 -1141 -1371 -1334 -256 -80 -546 -134 -920 -172 -85 -8 -161 -18 -167
-20 -10 -3 -13 -96 -13 -420 l0 -415 2940 0 2940 0 0 415 c0 324 -3 417 -12
420 -7 2 -114 14 -238 25 -482 44 -835 111 -1170 221 -332 110 -510 228 -598
397 -22 42 -46 97 -52 122 -21 79 -28 211 -19 335 31 384 168 811 687 2135
115 294 234 598 264 675 l54 140 2414 2 2415 3 37 -93 c799 -2014 998 -2544
1088 -2887 127 -488 7 -717 -460 -876 -270 -91 -581 -145 -1047 -181 l-223
-17 0 -418 0 -418 3415 0 3415 0 0 420 c0 231 -1 420 -2 421 -2 0 -110 11
-242 23 l-238 23 -117 -44 c-415 -158 -1035 -340 -1535 -449 -725 -159 -1583
-256 -1771 -200 -219 65 -327 215 -395 546 -24 118 -28 202 -10 254 11 34 9
39 -18 74 -69 87 -91 175 -100 392 -21 491 71 989 237 1283 l38 68 -26 62
c-23 58 -25 72 -23 201 1 77 9 182 17 235 14 87 14 100 -2 170 -14 63 -17 127
-18 371 l0 295 35 86 36 85 -36 56 c-50 77 -85 197 -116 397 -5 39 -20 58
-121 165 -253 267 -477 605 -728 1101 -194 383 -289 613 -307 739 -8 59 -14
72 -41 95 -159 131 -448 410 -528 508 -107 134 -176 280 -209 445 -15 73 -30
116 -55 158 -54 89 -81 156 -140 350 -92 302 -145 530 -145 620 l0 79 -61 68
c-148 167 -273 356 -347 526 -76 174 -152 467 -153 591 l-1 61 -90 100 c-184
204 -338 432 -460 680 -148 303 -221 537 -275 885 -25 163 -25 614 0 785 57
379 170 717 348 1042 30 54 100 166 156 250 l101 152 -60 163 c-33 90 -62 171
-65 181 -3 9 -13 17 -22 16 -9 0 -223 -38 -475 -85z m-666 -3354 c0 -10 176
-475 438 -1155 147 -381 252 -651 662 -1695 111 -283 282 -720 380 -970 447
-1143 522 -1335 527 -1342 2 -5 -905 -8 -2016 -8 l-2019 0 33 83 c30 75 173
443 590 1517 86 223 237 610 335 860 98 250 233 597 300 770 67 173 196 506
287 740 172 441 463 1200 463 1206 0 2 5 4 10 4 6 0 10 -4 10 -10z"/>
<path d="M14341 13234 c-72 -19 -109 -44 -170 -109 -115 -127 -139 -326 -65
-552 53 -163 136 -297 258 -418 189 -187 432 -289 612 -256 219 40 338 215
321 469 -34 498 -559 973 -956 866z"/>
<path d="M11210 12487 c0 -8 20 -96 45 -197 87 -352 128 -415 600 -940 622
-693 1114 -1116 1540 -1325 173 -85 303 -132 469 -170 146 -32 314 -45 327
-24 14 22 10 264 -6 399 -34 270 -98 528 -191 763 -74 187 -220 483 -339 686
-154 261 -138 241 -193 241 -26 0 -128 -7 -227 -16 -464 -42 -923 37 -1386
238 -130 57 -419 215 -544 298 -96 64 -95 63 -95 47z"/>
<path d="M11787 11143 c35 -159 117 -465 153 -568 18 -50 54 -124 80 -165 45
-68 52 -87 74 -200 38 -192 75 -258 239 -427 301 -310 794 -715 1197 -982 253
-168 551 -314 580 -285 22 23 81 648 84 878 l1 140 -105 26 c-732 185 -1360
625 -2149 1508 -90 100 -166 182 -171 182 -4 0 4 -48 17 -107z"/>
<path d="M12893 9080 c14 -66 120 -316 222 -525 232 -471 514 -907 709 -1095
31 -30 49 -41 56 -34 20 20 181 707 205 877 l7 47 -58 26 c-419 188 -580 290
-1083 688 l-64 50 6 -34z"/>
<path d="M16267 7153 c-37 -42 -67 -83 -67 -92 0 -8 30 -67 67 -130 226 -393
489 -840 499 -850 4 -4 235 75 267 91 17 9 16 12 -9 56 -87 150 -663 993 -683
1000 -4 1 -38 -32 -74 -75z"/>
<path d="M15895 6752 c-264 -261 -399 -382 -595 -534 -352 -274 -770 -517
-1059 -615 -58 -19 -85 -34 -91 -48 -4 -11 -11 -64 -15 -118 l-7 -98 23 5
c972 216 1415 334 2162 577 207 67 307 104 307 113 0 19 -184 387 -271 544
-76 136 -230 382 -239 382 -3 0 -99 -94 -215 -208z"/>
<path d="M17127 5747 c-139 -58 -147 -63 -129 -77 11 -8 49 -36 84 -62 228
-166 447 -444 627 -798 45 -88 84 -160 86 -160 12 0 316 133 320 140 7 11
-110 201 -209 338 -165 230 -387 497 -478 574 -63 53 -139 108 -147 107 -3 -1
-73 -29 -154 -62z"/>
<path d="M16494 5510 c-657 -216 -1399 -412 -2054 -544 -151 -31 -284 -58
-296 -61 -62 -14 -178 -345 -219 -625 -20 -134 -30 -431 -20 -582 6 -108 9
-118 27 -118 32 0 469 69 669 105 310 57 976 215 1329 316 96 27 380 118 630
201 648 215 1010 347 1010 369 0 17 -130 301 -190 416 -110 211 -239 382 -373
494 -79 67 -174 119 -213 119 -16 -1 -151 -41 -300 -90z"/>
<path d="M18246 4374 c-182 -95 -1277 -500 -1831 -678 -422 -135 -618 -189
-989 -275 -487 -113 -921 -196 -1290 -247 l-128 -17 6 -37 c9 -60 56 -213 74
-244 10 -16 31 -34 47 -38 74 -22 530 12 844 62 457 74 1087 213 1495 331 444
128 943 313 1316 486 130 61 260 135 418 239 148 98 182 133 182 190 0 43 -74
255 -89 254 -3 -1 -28 -12 -55 -26z"/>
</g>
</svg>
