<?xml version="1.0" standalone="no"?>
<!DOCTYPE svg PUBLIC "-//W3C//DTD SVG 20010904//EN"
 "http://www.w3.org/TR/2001/REC-SVG-20010904/DTD/svg10.dtd">
<svg version="1.0" xmlns="http://www.w3.org/2000/svg"
 width="1254.000000pt" height="1254.000000pt" viewBox="0 0 1254.000000 1254.000000"
 preserveAspectRatio="xMidYMid meet">

<g transform="translate(0.000000,1254.000000) scale(0.100000,-0.100000)"
fill="#000000" stroke="none">
<path d="M9155 9664 c-326 -52 -596 -244 -747 -530 -96 -183 -139 -387 -119
-573 16 -148 34 -213 108 -388 3 -8 -3 -13 -14 -13 -25 0 -68 -45 -87 -92 -22
-52 -20 -143 4 -196 11 -24 44 -80 73 -125 78 -118 102 -169 141 -304 19 -66
39 -131 45 -144 5 -15 6 -43 0 -70 -11 -60 -11 -156 1 -253 5 -45 16 -144 25
-221 28 -256 89 -475 196 -705 83 -179 85 -209 30 -422 -56 -215 -79 -350 -97
-573 -13 -162 -20 -198 -42 -247 -14 -32 -35 -66 -48 -77 -14 -12 -36 -62 -61
-138 -29 -89 -61 -157 -125 -269 l-87 -149 -35 -180 c-48 -247 -49 -251 -41
-274 19 -62 276 -124 619 -151 166 -13 546 -13 712 0 352 28 598 87 639 155
10 16 5 58 -30 237 l-43 217 -88 146 c-67 113 -96 172 -125 262 -21 63 -47
125 -58 137 -27 29 -78 146 -101 231 -11 39 -33 148 -50 244 -17 96 -42 209
-57 250 -14 42 -25 92 -24 111 3 56 49 197 96 290 106 210 151 408 175 760 6
85 17 188 25 229 9 41 18 133 21 205 6 128 8 135 61 276 98 259 134 379 140
466 6 93 -7 165 -41 215 l-23 33 48 91 c67 126 96 210 115 323 17 108 12 179
-16 214 -10 13 -21 50 -25 88 -40 361 -248 665 -560 820 -55 27 -138 59 -185
70 -83 20 -280 34 -345 24z"/>
<path d="M2391 6022 c-534 -1335 -971 -2433 -971 -2440 0 -9 119 -11 542 -9
l542 2 40 100 c61 156 261 674 324 838 l56 147 1001 0 1001 0 179 -457 c98
-252 192 -495 209 -540 l30 -83 311 -1 c170 -1 391 -3 490 -4 99 -2 203 -1
232 2 48 5 51 7 43 27 -5 11 -125 314 -265 671 -366 930 -526 1334 -890 2250
-288 724 -641 1618 -728 1842 l-32 83 -571 0 -572 0 -971 -2428z m1571 1136
c14 -40 69 -183 122 -318 53 -135 139 -353 191 -485 51 -132 141 -361 199
-509 58 -148 106 -275 106 -282 0 -12 -109 -14 -650 -14 -464 0 -650 3 -650
11 0 6 52 144 116 307 318 814 426 1089 475 1219 30 79 56 143 59 143 3 0 17
-33 32 -72z"/>
<path d="M5396 8441 c-3 -4 85 -233 195 -507 362 -901 1692 -4217 1718 -4286
l26 -68 322 0 322 0 10 53 c16 78 112 708 113 737 0 24 -86 248 -425 1100 -91
228 -274 692 -407 1030 -290 736 -334 848 -485 1230 -64 162 -150 381 -191
485 -41 105 -79 200 -84 213 l-10 22 -549 0 c-302 0 -552 -4 -555 -9z"/>
</g>
</svg>
